<svg xmlns="http://www.w3.org/2000/svg" xmlns:xlink="http://www.w3.org/1999/xlink" xmlns:serif="http://www.serif.com/" viewBox="0 0 32 40" version="1.1" xml:space="preserve" style="" x="0px" y="0px" fill-rule="evenodd" clip-rule="evenodd" stroke-linejoin="round" stroke-miterlimit="2"><g transform="matrix(1,0,0,1,-52,-156)"><g><path d="M67.293,177.193L67.439,177.314L67.612,177.408L67.797,177.465L67.988,177.485L68.179,177.469L68.365,177.417L68.54,177.328L68.689,177.211L71.193,174.707C72.269,173.631 72.269,171.884 71.193,170.807C70.329,169.944 69.034,169.773 68,170.295L67.995,170.292C67.765,170.178 67.52,170.095 67.268,170.048C66.638,169.93 65.975,170.036 65.415,170.348C65.182,170.478 64.969,170.642 64.782,170.833C64.59,171.03 64.427,171.256 64.301,171.502C64.157,171.783 64.063,172.09 64.023,172.404C63.979,172.742 63.999,173.088 64.08,173.419C64.198,173.898 64.446,174.346 64.795,174.695C65.627,175.527 66.46,176.36 67.293,177.193Z"/><path d="M73,158L73,159C73,160.326 72.473,161.598 71.536,162.536C70.598,163.473 69.326,164 68,164C68,164 68,164 68,164C66.674,164 65.402,163.473 64.464,162.536C63.527,161.598 63,160.326 63,159L63,158L61,158C60.829,158 60.669,158.043 60.528,158.118C60.461,158.154 60.396,158.199 60.337,158.252L60.293,158.293C60.293,158.293 54.293,164.293 54.293,164.293C53.902,164.683 53.902,165.317 54.293,165.707L58.536,169.95C58.926,170.34 59.559,170.34 59.95,169.95L60,169.899L60,178L61,178C62.326,178 63.598,178.527 64.536,179.464C65.473,180.402 66,181.674 66,183L66,185.928C66.329,185.976 66.663,186 67,186C67.663,186 68.337,186 69,186C69.337,186 69.671,185.976 70,185.928L70,183C70,181.674 70.527,180.402 71.464,179.464C72.402,178.527 73.674,178 75,178L76,178L76,169.899L76.05,169.95C76.441,170.34 77.074,170.34 77.464,169.95L81.707,165.707C82.098,165.317 82.098,164.683 81.707,164.293L75.707,158.293L75.663,158.252C75.604,158.199 75.539,158.154 75.472,158.118C75.331,158.043 75.171,158 75,158L73,158ZM75.928,180L75,180L74.926,180.001C74.157,180.02 73.424,180.334 72.879,180.879C72.316,181.441 72,182.204 72,183L72,185.325C72.717,184.984 73.378,184.522 73.95,183.95C75.024,182.875 75.714,181.487 75.928,180ZM60.072,180C60.286,181.487 60.976,182.875 62.05,183.95C62.622,184.522 63.283,184.984 64,185.325L64,183C64,182.204 63.684,181.441 63.121,180.879C62.559,180.316 61.796,180 61,180L60.072,180ZM71,158L65,158L65,159C65,159.796 65.316,160.559 65.879,161.121C66.441,161.684 67.204,162 68,162C68.796,162 69.559,161.684 70.121,161.121C70.684,160.559 71,159.796 71,159L71,158Z"/></g></g></svg>