<svg xmlns="http://www.w3.org/2000/svg"
     viewBox="0 15 100 70"
     width="100%" height="100%"
     preserveAspectRatio="xMidYMid meet">

    <path d="M69.546,22.954C66.996,20.404,63.606,19,60,19H40c-3.606,0-6.996,1.404-9.546,3.954l-11.25,11.25
    c-0.391,0.391-0.391,1.023,0,1.414l7.589,7.589c0.337,0.337,0.866,0.39,1.262,0.125L34,39.369V65
    c0,8.529,6.714,15.501,15.132,15.956C49.417,80.985,49.707,81,50,81s0.583-0.015,0.868-0.044C59.286,80.501,66,73.529,66,65V39.369
    l5.945,3.963c0.397,0.265,0.924,0.212,1.262-0.125l7.589-7.589c0.391-0.391,0.391-1.023,0-1.414L69.546,22.954z
    M58.941,21c-0.5,4.493-4.317,8-8.941,8s-8.441-3.507-8.941-8H58.941z
    M36.055,66.094c3.083,0.507,5.445,3.183,5.445,6.406c0,1.644,0.477,3.175,1.288,4.477C39.023,74.701,36.415,70.714,36.055,66.094z
    M57.212,76.977c0.812-1.302,1.288-2.833,1.288-4.477c0-3.224,2.362-5.899,5.445-6.406C63.585,70.714,60.977,74.701,57.212,76.977z
    M72.373,41.213l-6.818-4.545c-0.307-0.205-0.703-0.224-1.026-0.05C64.203,36.792,64,37.131,64,37.5v26.564
    c-4.217,0.498-7.5,4.088-7.5,8.436c0,3.584-2.916,6.5-6.5,6.5s-6.5-2.916-6.5-6.5c0-4.348-3.283-7.938-7.5-8.436V37.5
    c0-0.369-0.203-0.708-0.528-0.882C35.324,36.539,35.162,36.5,35,36.5c-0.194,0-0.387,0.057-0.555,0.168l-6.818,4.545l-6.302-6.302
    l10.543-10.543c1.947-1.947,4.471-3.102,7.185-3.322C39.582,26.622,44.288,31,50,31s10.418-4.378,10.947-9.954
    c2.714,0.22,5.238,1.375,7.185,3.322l10.543,10.543L72.373,41.213z"/>

    <path d="M56.827,39.305l-4.097-0.595l-1.833-3.713c-0.337-0.683-1.456-0.683-1.793,0l-1.833,3.713l-4.097,0.595
    c-0.377,0.055-0.69,0.319-0.808,0.681s-0.02,0.759,0.253,1.025l2.965,2.891l-0.7,4.081c-0.064,0.375,0.09,0.754,0.398,0.978
    c0.309,0.224,0.716,0.253,1.053,0.076L50,47.11l3.665,1.927c0.146,0.077,0.306,0.115,0.465,0.115c0.207,0,0.414-0.064,0.588-0.191
    c0.308-0.224,0.462-0.603,0.398-0.978l-0.7-4.081l2.965-2.891c0.272-0.266,0.371-0.663,0.253-1.025S57.204,39.36,56.827,39.305z"/>
</svg>