<svg xmlns="http://www.w3.org/2000/svg" version="1.1" viewBox="-5.0 -10.0 110.0 135.0">
    <path d="m79.438 11.734c-2.2188-1.75-4.6094-0.60938-6.5156 0.29688-0.65625 0.3125-1.3438 0.64062-2.0156 0.85938-1.375 0.45312-1.7188 1.7969-1.9062 2.5312-0.03125 0.125-0.0625 0.26562-0.125 0.40625-0.5 1.5781-1.1719 2.6875-2.0469 3.4219-0.79688 0.65625-1.6406 1.25-2.5781 1.7969-1.1875 0.67188-2.625 1.0156-4.3438 0.95312-3.4844-0.09375-6.6719 1.125-8.9531 3.375-0.6875-0.28125-1.4375-0.40625-2.2031-0.3125-1.1719 0.14062-2.2031 0.71875-2.9219 1.6406l-4.2344 5.3906c-0.29688 0.39062-0.51562 0.8125-0.67188 1.2656-3.5-0.046875-6.75 1.9219-8.2969 5.1719-3.5625 7.3906-8.8281 12.141-13.484 16.328-5.5 4.9531-10.234 9.2188-9.3594 15.922 0.53125 4.0156 4.7969 11.25 10.766 15.938 5.5156 4.3281 12.797 6.7344 17.047 6.7344 0.34375 0 0.6875-0.015625 0.98438-0.046875 6.7188-0.71875 9.75-6.3438 13.25-12.859 2.9688-5.5156 6.3281-11.766 12.672-16.969 2.7656-2.2656 3.9062-5.875 3.0469-9.2812 0.40625-0.26562 0.76562-0.57812 1.0781-0.95312l4.2344-5.3906c0.71875-0.92188 1.0469-2.0781 0.90625-3.2344-0.09375-0.76562-0.39062-1.4531-0.82812-2.0625 1.6562-2.75 2.0781-6.1406 1.1562-9.4844-0.4375-1.6406-0.48438-3.1406-0.10938-4.4375 0.29688-1.0312 0.67188-2 1.1406-2.9531 0.48438-1.0156 1.4219-1.9375 2.8594-2.8125 0.78125-0.5 1.4688-1.1094 2.0156-1.8125 2.3906-3.0469 2.1406-7.2656-0.57812-9.3906zm-16.906 49.406c-6.8281 5.5938-10.484 12.422-13.438 17.906-3.3438 6.2031-5.75 10.688-10.844 11.234-3.3594 0.375-10.656-2.0312-15.766-6.0312-5.1094-4.0156-9.1562-10.531-9.5938-13.891-0.67188-5.0781 3.1094-8.4844 8.3438-13.188 4.625-4.1719 10.391-9.3438 14.203-17.297 1.0469-2.1875 3.2969-3.5156 5.5625-3.4062 0.28125 0.6875 0.71875 1.3125 1.3281 1.7812l20.125 15.812c0.60938 0.46875 1.3125 0.76562 2.0469 0.89062 0.625 2.2344-0.125 4.6719-1.9844 6.2031zm7.875-15.141-4.2344 5.3906c-0.20312 0.26562-0.51562 0.4375-0.84375 0.46875-0.34375 0.046875-0.67188-0.046875-0.9375-0.26562l-20.125-15.812c-0.26562-0.20312-0.4375-0.51562-0.46875-0.84375-0.046875-0.32812 0.046875-0.67188 0.26562-0.9375l4.2344-5.3906c0.20312-0.26562 0.51562-0.4375 0.84375-0.46875h0.15625c0.28125 0 0.54688 0.09375 0.78125 0.26562l20.125 15.812c0.26562 0.20312 0.4375 0.51562 0.46875 0.84375 0.046875 0.32812-0.046875 0.67188-0.26562 0.9375zm7.1406-26.797c-0.34375 0.42188-0.75 0.79688-1.2031 1.0938-1.9531 1.1875-3.2656 2.5312-4.0156 4.0938-0.53125 1.1094-0.96875 2.2188-1.3281 3.4531-0.53125 1.8594-0.5 3.9219 0.09375 6.125 0.64062 2.3125 0.42188 4.625-0.5625 6.5469l-16.938-13.297c1.6562-1.4062 3.875-2.1719 6.2344-2.0938 2.2969 0.03125 4.2812-0.40625 5.9688-1.3594 1.1094-0.64062 2.0938-1.3281 3.0156-2.0938 1.3594-1.1094 2.3438-2.7031 3.0312-4.8438 0.0625-0.1875 0.125-0.39062 0.17188-0.59375 0.03125-0.125 0.078125-0.3125 0.125-0.4375 0.75-0.26562 1.4531-0.59375 2.125-0.92188 1.9375-0.92188 2.6406-1.125 3.2344-0.65625 1.3594 1.0625 1.375 3.3125 0.046875 5z"/>
    <path d="m38.719 43.344c-0.67188-0.53125-1.6562-0.42188-2.1875 0.26562-0.53125 0.67188-0.42188 1.6562 0.26562 2.1875l2.4531 1.9375c0.28125 0.21875 0.625 0.32812 0.96875 0.32812 0.46875 0 0.92188-0.20312 1.2344-0.59375 0.53125-0.67188 0.42188-1.6562-0.26562-2.1875l-2.4531-1.9375z"/>
    <path d="m33.891 49.484c-0.6875-0.53125-1.6562-0.42188-2.1875 0.26562-0.53125 0.67188-0.42188 1.6562 0.26562 2.1875l2.4531 1.9375c0.28125 0.21875 0.625 0.32812 0.96875 0.32812 0.46875 0 0.92188-0.20312 1.2344-0.59375 0.53125-0.67188 0.42188-1.6562-0.26562-2.1875l-2.4531-1.9375z"/>
    <path d="m29.062 55.625c-0.67188-0.53125-1.6562-0.42188-2.1875 0.26562-0.53125 0.67188-0.42188 1.6562 0.26562 2.1875l2.4531 1.9375c0.28125 0.21875 0.625 0.32812 0.96875 0.32812 0.46875 0 0.92188-0.20312 1.2344-0.59375 0.53125-0.67188 0.42188-1.6562-0.26562-2.1875l-2.4531-1.9375z"/>
    <path d="m24.25 61.766c-0.67188-0.53125-1.6562-0.42188-2.1875 0.26562-0.53125 0.67188-0.42188 1.6562 0.26562 2.1875l2.4531 1.9375c0.28125 0.21875 0.625 0.32812 0.96875 0.32812 0.46875 0 0.92188-0.20312 1.2344-0.59375 0.53125-0.67188 0.42188-1.6562-0.26562-2.1875l-2.4531-1.9375z"/>
</svg>