<svg xmlns="http://www.w3.org/2000/svg" version="1.1" viewBox="-5.0 -10.0 110.0 135.0"
     fill="currentColor"
    >
    <path
            d="m50 3c-25.922 0-47 21.078-47 47s21.078 47 47 47 47-21.078 47-47-21.078-47-47-47zm0 90c-23.711 0-43-19.289-43-43s19.289-43 43-43 43 19.289 43 43-19.289 43-43 43z"/>
    <path
            d="m76.301 24.012c-0.050781-0.058594-0.089843-0.12109-0.14062-0.17188-0.050781-0.050782-0.10938-0.089844-0.17188-0.14062-6.6914-6.6094-15.871-10.699-25.988-10.699-10.121 0-19.301 4.0898-25.988 10.699-0.058594 0.050781-0.12109 0.089843-0.17188 0.14062-0.050782 0.050781-0.089844 0.10938-0.14062 0.17188-6.6094 6.6914-10.699 15.871-10.699 25.988 0 10.121 4.0898 19.301 10.699 25.988 0.050781 0.058594 0.089843 0.12109 0.14062 0.17188 0.050781 0.050782 0.10938 0.089844 0.17188 0.14062 6.6914 6.6094 15.871 10.699 25.988 10.699 10.121 0 19.301-4.0898 25.988-10.699 0.058594-0.050781 0.12109-0.089843 0.17188-0.14062 0.050782-0.050781 0.089844-0.10938 0.14062-0.17188 6.6094-6.6914 10.699-15.871 10.699-25.988 0-10.121-4.0898-19.301-10.699-25.988zm3.6992 27.988h2.9297c-0.46094 7.6016-3.4883 14.5-8.2383 19.859l-2.0586-2.0586c-0.78125-0.78125-2.0508-0.78125-2.8281 0-0.78125 0.78125-0.78125 2.0508 0 2.8281l2.0586 2.0586c-5.3594 4.75-12.27 7.7891-19.859 8.2383v-2.9297c0-1.1016-0.89844-2-2-2-1.1016 0-2 0.89844-2 2v2.9297c-7.6016-0.46094-14.5-3.4883-19.859-8.2383l2.0586-2.0586c0.78125-0.78125 0.78125-2.0508 0-2.8281-0.78125-0.78125-2.0508-0.78125-2.8281 0l-2.0586 2.0586c-4.75-5.3594-7.7891-12.27-8.2383-19.859h2.9297c1.1016 0 2-0.89844 2-2s-0.89844-2-2-2h-2.9297c0.46094-7.6016 3.4883-14.5 8.2383-19.859l2.0586 2.0586c0.39062 0.39062 0.89844 0.58984 1.4102 0.58984 0.51172 0 1.0195-0.19922 1.4102-0.58984 0.78125-0.78125 0.78125-2.0508 0-2.8281l-2.0586-2.0586c5.3594-4.75 12.27-7.7891 19.859-8.2383v2.9297c0 1.1016 0.89844 2 2 2 1.1016 0 2-0.89844 2-2v-2.9297c7.6016 0.46094 14.5 3.4883 19.859 8.2383l-2.0586 2.0586c-0.78125 0.78125-0.78125 2.0508 0 2.8281 0.39062 0.39062 0.89844 0.58984 1.4102 0.58984s1.0195-0.19922 1.4102-0.58984l2.0586-2.0586c4.75 5.3594 7.7891 12.27 8.2383 19.859h-2.9297c-1.1016 0-2 0.89844-2 2s0.89844 2 2 2z"/>
    <path
            d="m65 48h-13v-13c0-1.1016-0.89844-2-2-2s-2 0.89844-2 2v15c0 1.1016 0.89844 2 2 2h15c1.1016 0 2-0.89844 2-2s-0.89844-2-2-2z"/>
</svg>