<svg xmlns="http://www.w3.org/2000/svg" viewBox="0 0 100 125" x="0px" y="0px"
     fill="currentColor"
>
    <title>Ruler</title>
    <g data-name="Layer 18">
        <path
                d="M91,38H9a6,6,0,0,0-6,6V61a6,6,0,0,0,6,6H91a6,6,0,0,0,6-6V44A6,6,0,0,0,91,38Zm2,23a2,2,0,0,1-2,2H9a2,2,0,0,1-2-2V44a2,2,0,0,1,2-2h4v8a2,2,0,0,0,4,0V42h6V55a2,2,0,0,0,4,0V42h6v8a2,2,0,0,0,4,0V42h6V55a2,2,0,0,0,4,0V42h6v8a2,2,0,0,0,4,0V42h6V55a2,2,0,0,0,4,0V42h6v8a2,2,0,0,0,4,0V42h6V55a2,2,0,0,0,4,0V42h4a2,2,0,0,1,2,2Z"/>
    </g>
</svg>